HIERARCHY
ROOT Hips
{
	OFFSET -3.958830 18.904000 13.208200
	CHANNELS 6 Xposition Yposition Zposition Zrotation Yrotation Xrotation 
	JOINT LHipJoint
	{
		OFFSET 0.000000 0.000000 0.000000
		CHANNELS 3 Zrotation Yrotation Xrotation
		JOINT LeftUpLeg
		{
			OFFSET 1.800000 -1.400000 0.085000
			CHANNELS 3 Zrotation Yrotation Xrotation
			JOINT LeftLeg
			{
				OFFSET 2.215000 -6.000000 0.000000
				CHANNELS 3 Zrotation Yrotation Xrotation
				JOINT LeftFoot
				{
					OFFSET 2.500000 -6.900000 0.000000
					CHANNELS 3 Zrotation Yrotation Xrotation
					JOINT LeftToeBase
					{
						OFFSET 0.200000 -0.500000 1.950000
						CHANNELS 3 Zrotation Yrotation Xrotation
						End Site
						{
							OFFSET 0.000000 0.000000 0.000000
						}
					}
				}
			}
		}
	}
	JOINT RHipJoint
	{
		OFFSET 0.000000 0.000000 0.000000
		CHANNELS 3 Zrotation Yrotation Xrotation
		JOINT RightUpLeg
		{
			OFFSET -1.800000 -1.400000 0.085000
			CHANNELS 3 Zrotation Yrotation Xrotation
			JOINT RightLeg
			{
				OFFSET -2.215000 -6.000000 0.000000
				CHANNELS 3 Zrotation Yrotation Xrotation
				JOINT RightFoot
				{
					OFFSET -2.500000 -6.900000 0.000000
					CHANNELS 3 Zrotation Yrotation Xrotation
					JOINT RightToeBase
					{
						OFFSET -0.200000 -0.500000 1.950000
						CHANNELS 3 Zrotation Yrotation Xrotation
						End Site
						{
							OFFSET 0.000000 0.000000 0.000000
						}
					}
				}
			}
		}
	}
	JOINT LowerBack
	{
		OFFSET 0.000000 0.000000 0.000000
		CHANNELS 3 Zrotation Yrotation Xrotation
		JOINT Spine
		{
			OFFSET -0.087000 1.940000 -0.288900
			CHANNELS 3 Zrotation Yrotation Xrotation
			JOINT Spine1
			{
				OFFSET 0.000000 1.950000 0.060000
				CHANNELS 3 Zrotation Yrotation Xrotation
				JOINT Neck
				{
					OFFSET 0.000000 0.000000 0.000000
					CHANNELS 3 Zrotation Yrotation Xrotation
					JOINT Neck1
					{
						OFFSET 0.000000 1.600000 0.340000
						CHANNELS 3 Zrotation Yrotation Xrotation
						JOINT Head
						{
							OFFSET 0.000000 1.667000 -0.240000
							CHANNELS 3 Zrotation Yrotation Xrotation
							End Site
							{
								OFFSET 0.000000 0.000000 0.000000
							}
						}
					}
				}
				JOINT LeftShoulder
				{
					OFFSET 0.000000 0.000000 0.000000
					CHANNELS 3 Zrotation Yrotation Xrotation
					JOINT LeftArm
					{
						OFFSET 2.700000 1.550000 -0.730000
						CHANNELS 3 Zrotation Yrotation Xrotation
						JOINT LeftForeArm
						{
							OFFSET 5.450000 0.000000 0.000000
							CHANNELS 3 Zrotation Yrotation Xrotation
							JOINT LeftHand
							{
								OFFSET 3.450000 0.000000 0.000000
								CHANNELS 3 Zrotation Yrotation Xrotation
								JOINT LeftHandIndex1
								{
									OFFSET 0.750000 0.000000 0.000000
									CHANNELS 3 Zrotation Yrotation Xrotation
									End Site
									{
										OFFSET 0.000000 0.000000 0.000000
									}
								}
							}
						}
					}
				}
				JOINT RightShoulder
				{
					OFFSET 0.000000 0.000000 0.000000
					CHANNELS 3 Zrotation Yrotation Xrotation
					JOINT RightArm
					{
						OFFSET -2.700000 1.550000 -0.730000
						CHANNELS 3 Zrotation Yrotation Xrotation
						JOINT RightForeArm
						{
							OFFSET -5.450000 0.000000 0.000000
							CHANNELS 3 Zrotation Yrotation Xrotation
							JOINT RightHand
							{
								OFFSET -3.450000 0.000000 0.000000
								CHANNELS 3 Zrotation Yrotation Xrotation
								JOINT RightHandIndex1
								{
									OFFSET -0.750000 0.000000 0.000000
									CHANNELS 3 Zrotation Yrotation Xrotation
									End Site
									{
										OFFSET 0.000000 0.000000 0.000000
									}
								}
							}
						}
					}
				}
			}
		}
	}
}
MOTION
Frames: 10
Frame Time: 0.016667
-22.347670 22.446440 -13.157540 91.396321 -1.615436 109.711696 -18.265056 10.810030 12.476550 -93.608716 9.870237 24.672875 122.219736 -30.282718 -9.947852 -67.322871 7.877522 -33.589147 56.420140 33.950880 51.223420 16.453566 -4.207664 3.569155 -92.577234 -55.835779 68.419641 -6.332869 59.880898 -132.979040 8.371796 -46.384111 -61.778467 56.778430 9.238720 3.588280 3.218086 -14.728338 -17.212879 11.653017 38.304877 24.154990 104.739690 -78.976482 158.741548 21.755352 2.133137 80.751055 152.524532 62.740930 160.921983 -91.723040 -64.574390 48.260010 -36.962342 67.931018 -38.039461 94.500223 63.578258 -137.377344 105.780738 16.206684 -75.462131 -73.629043 25.080788 -58.263500 26.047310 -19.630380 -5.481580 49.282798 -47.916967 -40.725176 -38.840807 -20.581713 -36.368256 33.346378 20.432704 -54.205733 -141.547509 14.020666 34.478770 28.329380 -14.428810 -20.408040 
-21.967320 22.333300 -13.411440 85.738687 5.433039 113.699691 -17.638990 10.111266 10.913989 -88.809420 22.639719 14.305444 143.358270 -35.880786 -26.884530 -65.089087 11.442951 -34.738091 53.885030 30.540970 46.215330 17.368135 0.785893 10.946075 112.518028 13.257320 131.759760 126.242176 -47.905666 37.285630 10.757727 -46.385316 -66.523246 52.668290 5.246720 6.299150 2.083215 -21.518460 -12.399191 54.898225 82.143857 48.087345 111.251086 -79.257773 -168.861020 -18.084166 -5.595023 36.514620 141.980553 73.200112 158.684474 -61.584660 -63.636250 21.851760 -103.038242 42.066074 -43.641749 -88.128407 80.406343 10.642558 118.736649 -7.049691 -108.376991 -93.144157 27.608124 -63.974460 22.767700 -24.578890 -8.199790 104.600405 -35.419127 -26.383054 -37.375409 -13.308439 86.083315 -11.053156 -34.878809 -97.880676 -151.308616 -48.982939 36.258700 31.444000 -4.635030 -29.428880 
-21.782600 22.355390 -12.571890 83.332015 6.355237 120.135376 -16.770820 5.731302 9.513994 -94.737686 -4.376051 9.486215 118.376284 -50.280814 9.440202 -59.590579 17.032597 -34.555513 49.890360 25.571050 38.292190 18.839358 1.241805 7.943380 96.570553 34.950963 123.846766 12.845767 -50.276689 129.621083 15.393809 -43.936640 -72.233755 46.863590 -0.730710 7.797370 -1.665308 -13.332478 -8.718047 1.240785 54.259385 -14.976539 76.320828 -89.331931 -171.189971 -20.229320 -3.433183 77.473406 137.173057 73.324676 164.231308 -40.919350 -61.834720 5.410460 132.197754 82.683424 162.005767 -103.779037 83.054779 7.662402 122.831912 -0.826093 -156.095253 -121.326693 44.242605 -71.997300 15.297800 -37.669780 -17.835350 62.639909 -66.105166 -29.723501 -27.106345 -12.274411 68.045163 -32.716555 -2.090937 -78.958096 -166.905835 -53.446208 34.235410 24.683980 19.685810 -50.592290 
-21.624890 23.115880 -8.347390 60.708670 10.557891 90.724267 -17.993040 -0.767523 15.003724 -56.218737 -63.704141 -14.998887 36.108261 2.026820 89.695699 -59.687252 18.598065 -33.830991 52.284610 23.028960 35.664030 17.743321 -7.176031 1.152935 74.209324 43.420558 111.144613 8.047858 7.334471 130.818840 21.300213 -42.527143 -81.486564 47.492880 -4.414560 5.287450 1.260802 -3.842129 -11.198503 -40.175900 -35.767452 25.584428 135.222577 -54.447682 -178.631705 -56.963619 -22.310878 19.636634 -18.419709 66.209087 3.210775 169.762790 -35.954010 118.961410 -151.461515 80.968035 107.322222 -162.630286 87.778678 94.158280 -104.916266 -1.150919 -138.808937 165.127892 14.687135 -171.407169 11.367010 -56.829810 -22.515230 68.393707 -54.528899 70.923880 -29.170237 -13.952347 21.275762 -10.228469 14.443389 -67.003994 -163.709690 -14.310467 29.887490 28.743660 45.271900 -78.465940 
-21.839350 22.922310 -12.843540 91.065039 6.571290 118.729819 -16.216916 3.788094 10.108333 -102.540882 -17.290069 19.740016 83.412778 -58.448414 55.178048 -58.946891 16.627648 -35.507699 49.618100 25.321030 38.654080 19.283158 -1.482507 6.748561 85.180766 38.326026 109.377147 1.890586 -37.358681 135.147654 14.632873 -42.692287 -71.104575 46.794050 -2.048410 6.592530 -3.770136 -6.336734 -11.492954 6.387833 48.744382 -7.971209 -92.939248 -84.095049 35.713643 -5.930720 -17.814755 45.177997 142.461130 83.562528 166.107151 -45.423510 -64.522590 8.097730 -104.277568 47.782613 -37.703749 -131.182019 46.211384 7.943955 132.257124 22.920984 -114.945652 -119.200887 47.045177 -64.353770 13.556750 -36.630310 -18.565390 103.767151 -33.883392 -46.898558 -28.805026 -12.846031 57.541241 -33.007035 -13.368317 -81.180431 -171.563260 -53.928170 33.820910 23.623930 18.018670 -52.909900 
-22.123390 23.307970 -14.378500 109.610765 -1.727445 113.636837 -17.335155 -1.260873 11.017042 -107.175082 9.580004 34.335824 120.916610 -45.071083 7.822497 -56.823811 14.897016 -33.874660 47.050500 27.090820 39.058600 18.303639 -4.379639 8.220183 96.887959 14.532586 100.820182 14.101735 -58.160405 123.492068 9.869460 -43.045055 -62.408246 45.381560 0.055350 6.239220 -0.651921 6.210700 -10.372861 0.129613 -46.562974 -10.519051 106.384424 -22.737975 -165.371946 -63.325758 -8.357733 4.822601 -37.256277 86.473081 -17.084376 -43.935150 -59.337820 7.154670 124.297270 -10.149229 17.191886 -145.750542 -51.787989 -132.117868 -178.447336 57.876593 -82.244673 -125.881117 55.258174 -40.103840 12.238620 -23.182140 -12.658660 30.673744 26.394577 -38.187332 -31.224955 -13.045542 78.130984 11.610768 55.834630 68.424461 -112.066603 -83.330753 22.595420 20.042660 6.301070 -32.078520 
-24.228890 23.462520 -13.121900 156.754322 -15.926939 85.476294 -15.418574 19.252364 -1.948596 -0.998024 75.533125 90.091210 107.654190 38.546212 -34.954114 -50.540439 9.712768 -28.551728 43.036620 25.620560 39.121720 18.116636 -5.410088 11.724896 109.210264 15.868332 68.057108 71.665960 -60.488090 68.716865 2.911439 -35.345351 -53.882403 42.166580 -4.829410 0.603390 -3.333133 -13.104639 -12.939869 13.306384 46.097599 0.041480 151.118527 0.807670 61.695834 -44.376860 15.858869 19.168308 135.230303 27.610635 151.219111 -22.016970 -40.283010 -9.205330 52.906952 29.586827 -20.250201 -151.189532 -57.271124 -161.859377 144.257886 -1.989254 -87.296253 -27.595545 50.235751 -4.285060 1.772780 -12.657380 -14.709440 21.396401 -8.789173 -41.518309 -34.807175 -14.414628 82.755482 -15.004816 71.166068 -63.649530 -54.434236 -59.272414 7.807760 9.911160 0.265600 -27.140530 
-24.140750 24.408610 -14.870460 -178.546224 -24.852993 94.290088 -16.140650 12.488671 -2.268793 34.678758 45.743058 129.939758 30.366798 25.734187 -123.725757 -54.687724 10.929434 -18.546997 42.170280 23.467900 36.432840 18.428548 -8.756959 9.274014 142.857197 32.407313 78.028957 122.868039 -27.767401 32.998702 7.173256 -38.105031 -57.644177 41.556190 -3.507640 5.719530 -2.844009 2.806019 -9.677129 -3.957033 -35.434021 -2.505086 122.674788 -49.790556 157.374729 -49.334810 -12.090363 37.105990 -35.828001 83.008072 -6.768205 -38.719980 -57.098720 1.957500 72.056811 57.951424 -15.512703 -171.691086 -46.288297 -113.590454 165.377596 47.416413 -113.503554 156.908230 79.527575 -174.547600 4.501570 -19.577870 -14.468870 20.035990 -12.079613 -69.816100 -35.896827 -17.803705 34.973777 54.559934 65.423907 71.672641 -79.558105 -84.732405 7.547390 15.043310 8.941820 -34.693890 
-24.073950 24.805830 -14.460960 168.363801 -20.794267 101.318993 -15.169441 16.480543 7.207431 124.528012 -10.986464 122.412604 -179.453416 -83.094722 68.187651 -52.497620 10.123763 -17.050679 41.470110 19.521580 35.211610 18.133769 -7.873606 2.002549 -63.739299 -61.136801 112.062762 -10.324880 -8.536373 -133.729447 4.306478 -26.076940 -55.001663 39.940760 -10.565090 1.761920 -4.730225 -8.038416 -7.660173 165.606323 54.427030 153.806812 51.685517 89.690583 -6.251237 -1.002289 -26.805524 63.625350 -19.794843 75.910339 -1.164035 -55.011730 -71.396990 12.490030 -91.847963 55.937992 -30.893606 -97.480659 6.882009 -28.365551 131.825965 1.741076 142.849767 76.461142 46.965582 83.692490 -7.590920 -29.100790 -21.819580 71.388391 -46.045698 -94.081320 -34.795218 -19.421244 38.621643 40.772285 70.798664 76.515651 -130.520816 -78.076472 14.980280 3.112810 14.298240 -54.755400 
-23.250250 24.702840 -12.038630 154.199296 -22.160181 111.962385 -17.155666 9.377561 17.251863 143.174709 -34.472923 152.760238 -130.039334 16.739518 1.507585 -52.755492 14.249448 -24.737084 44.403210 16.958850 34.823600 18.613203 -0.869476 5.059681 33.084593 -5.777693 20.647940 -36.432425 29.674036 112.673855 12.473222 -39.199660 -70.215779 40.904150 -15.694270 -1.854450 -1.496532 -15.333345 -13.120585 27.348889 82.151276 19.243533 60.955429 73.087332 -33.222467 -16.578844 6.949075 90.189592 -14.107561 76.939322 2.258685 -60.913610 -80.772050 16.056480 52.538580 69.640812 -19.160319 -3.609986 78.681498 -178.296968 -94.975898 57.472803 29.493554 70.982264 -60.600703 108.171500 -13.997960 -44.664640 -23.071340 18.018000 -47.130314 -49.406872 -27.753658 -11.812692 108.252374 22.127704 24.937307 -61.280467 -142.508852 42.302626 25.685832 0.810190 23.358700 -79.429770 
